# xmcd
#
# Track frame offsets: 
#        150
#        21040
#        37988
#        61990
#        80373
#        101518
#        118877
#        137518
#        154644
#        173679
#        195838
#        218665
#        239361
#        257991
#
# Disc length: 4027 seconds
#
# Revision: 0
# Processed by: cddbd v1.5.1PL2 Copyright (c) Steve Scherf et al.
# Submitted via: ExactAudioCopy v0.95b3
#
DISCID=ae0fb90e
DTITLE=Faith Hill - CRY
DYEAR=2005
DGENRE=Country
TTITLE0=Free
TTITLE1=Cry
TTITLE2=One
TTITLE3=When the lights go down
TTITLE4=Beautiful
TTITLE5=Unsaveable
TTITLE6=Baby You Belong
TTITLE7=If You're Gonna Fly Away
TTITLE8=Stronger
TTITLE9=If This is The End
TTITLE10=This is Me
TTITLE11=Back To You
TTITLE12=I Think I will
TTITLE13=You're Still Here
EXTD=
EXTT0=
EXTT1=
EXTT2=
EXTT3=
EXTT4=
EXTT5=
EXTT6=
EXTT7=
EXTT8=
EXTT9=
EXTT10=
EXTT11=
EXTT12=
EXTT13=
PLAYORDER=
